<svg width="673" height="637" viewBox="0 0 673 637" fill="none" xmlns="http://www.w3.org/2000/svg">
<mask id="mask0_113_523" style="mask-type:alpha" maskUnits="userSpaceOnUse" x="0" y="0" width="673" height="637">
<rect width="673" height="637" fill="#D9D9D9"/>
</mask>
<g mask="url(#mask0_113_523)">
<path d="M454.699 -166.08L530.501 -90.2786C538.718 -82.0614 538.651 -68.7309 530.43 -60.5094L439.425 30.4952L348.421 121.5C340.201 129.719 326.942 129.719 318.722 121.5L242.92 45.698C234.701 37.4787 234.701 24.2188 242.92 15.9995L333.925 -75.0051L425 -166.08C433.22 -174.3 446.48 -174.3 454.699 -166.08Z" stroke="white" stroke-opacity="0.15"/>
<path d="M150.219 25.6869L150.222 25.6838C158.297 17.4702 171.696 17.4659 179.917 25.6869L276.437 122.207C284.657 130.426 284.657 143.686 276.437 151.905L179.917 248.425C171.698 256.645 158.438 256.645 150.219 248.425L53.6986 151.905C45.4793 143.686 45.4793 130.426 53.6986 122.207L150.219 25.6869Z" stroke="white" stroke-opacity="0.15"/>
<path d="M849.196 45.695L849.194 45.698L773.392 121.5C765.172 129.719 751.912 129.719 743.693 121.5L652.689 30.4952L561.684 -60.5094C553.465 -68.7288 553.465 -81.9886 561.684 -90.2079L637.486 -166.01C645.705 -174.229 658.965 -174.229 667.184 -166.01L758.189 -75.0051L849.194 15.9995C857.416 24.2216 857.48 37.5498 849.196 45.695Z" stroke="white" stroke-opacity="0.15"/>
<path d="M530.433 364.459L530.43 364.462L454.628 440.264C446.409 448.483 433.149 448.483 424.929 440.264L333.925 349.259L242.92 258.254C234.701 250.035 234.701 236.775 242.92 228.556L318.722 152.754C326.941 144.535 340.201 144.535 348.421 152.754L439.425 243.759L530.43 334.763C538.652 342.985 538.716 356.314 530.433 364.459Z" stroke="white" stroke-opacity="0.15"/>
<path d="M434.688 533.036L434.685 533.033C426.399 524.886 426.397 511.487 434.617 503.267L531.137 406.747C539.356 398.527 552.616 398.527 560.836 406.747L657.356 503.267C665.575 511.486 665.575 524.746 657.356 532.965L560.836 629.485C552.616 637.705 539.356 637.705 531.137 629.485L434.688 533.036Z" stroke="white" stroke-opacity="0.15"/>
<path d="M773.463 152.683L849.264 228.485C857.482 236.702 857.415 250.033 849.194 258.254L758.189 349.259L667.184 440.264C658.965 448.483 645.705 448.483 637.486 440.264L561.684 364.462C553.465 356.242 553.465 342.983 561.684 334.763L652.689 243.759L743.764 152.683C751.983 144.464 765.243 144.464 773.463 152.683Z" stroke="white" stroke-opacity="0.15"/>
</g>
</svg>
